<svg id="Layer_1" data-name="Layer 1" xmlns="http://www.w3.org/2000/svg" viewBox="0 0 183.35 186.42"><defs><style>.cls-1{fill:#86d1d7;}.cls-2{fill:#2e2b7c;}</style></defs><rect class="cls-1" x="11.32" y="12.85" width="160.72" height="160.72" rx="23.65"/><path class="cls-2" d="M37.62,45.69,81.76,95.77a13.22,13.22,0,0,0,19.84,0L145,46.56a4.79,4.79,0,0,1,1.23-1,15,15,0,0,0-6-1.25h-97a14.88,14.88,0,0,0-5.76,1.15C37.47,45.55,37.55,45.61,37.62,45.69Z"/><path class="cls-2" d="M152.88,51.35a4.55,4.55,0,0,1-.85,1.43L108.66,102a22.64,22.64,0,0,1-34,0L30.56,51.91a2.35,2.35,0,0,1-.23-.32,14.85,14.85,0,0,0-2.16,7.73V127.1a15,15,0,0,0,15,15h97a15,15,0,0,0,15-15V59.32A15,15,0,0,0,152.88,51.35Z"/></svg>