<svg id="Layer_1" data-name="Layer 1" xmlns="http://www.w3.org/2000/svg" viewBox="0 0 183.35 186.42"><defs><style>.cls-1{fill:#86d1d7;}.cls-2{fill:#2e2b7c;}</style></defs><rect class="cls-1" x="11.32" y="12.85" width="160.72" height="160.72" rx="23.65"/><path class="cls-2" d="M135.21,122.44V44.68A15.7,15.7,0,0,0,119.51,29H63.84a15.69,15.69,0,0,0-15.69,15.7v77.76ZM91.68,38.77A4.71,4.71,0,1,1,87,43.48,4.7,4.7,0,0,1,91.68,38.77Z"/><path class="cls-2" d="M48.15,131.85v9.88a15.69,15.69,0,0,0,15.69,15.7h55.67a15.69,15.69,0,0,0,15.7-15.7v-9.88ZM91.68,148.7a4.71,4.71,0,1,1,4.7-4.71A4.71,4.71,0,0,1,91.68,148.7Z"/></svg>