<svg id="Layer_1" data-name="Layer 1" xmlns="http://www.w3.org/2000/svg" viewBox="0 0 71 71"><defs><style>.cls-1{fill:#86d1d7;}.cls-2{fill:none;stroke:#282567;stroke-miterlimit:10;}.cls-3{fill:#282567;}</style></defs><circle class="cls-1" cx="35.5" cy="35.5" r="35.5"/><circle class="cls-2" cx="35.5" cy="35.5" r="31"/><path class="cls-3" d="M39.42,42.38a7.11,7.11,0,1,0-7.84,0,11.38,11.38,0,0,0-7.46,10.67H26a9.49,9.49,0,0,1,19,0h1.89A11.38,11.38,0,0,0,39.42,42.38Zm-3.92-.71a5.22,5.22,0,1,1,5.22-5.22A5.22,5.22,0,0,1,35.5,41.67Z"/><path class="cls-3" d="M48.91,37.63a7.11,7.11,0,1,0-8.83-11.07,7,7,0,0,0-1.21,1.54,9.16,9.16,0,0,1,1.67.88,5.37,5.37,0,0,1,1.28-1.41,5.21,5.21,0,1,1,4.57,9.15,5,5,0,0,1-1.4.2l-.5,0a9.3,9.3,0,0,1-.32,2,7.36,7.36,0,0,1,.82-.06,10.55,10.55,0,0,1,1.13.07,9.5,9.5,0,0,1,8.35,9.42h1.9A11.41,11.41,0,0,0,48.91,37.63Z"/><path class="cls-3" d="M26,38.82a7.36,7.36,0,0,1,.82.06,9.3,9.3,0,0,1-.32-2l-.5,0a5,5,0,0,1-1.4-.2,5.21,5.21,0,1,1,4.57-9.15A5.37,5.37,0,0,1,30.46,29a9.16,9.16,0,0,1,1.67-.88,7,7,0,0,0-1.21-1.54,7.11,7.11,0,1,0-8.83,11.07,11.41,11.41,0,0,0-7.46,10.68h1.9a9.5,9.5,0,0,1,8.35-9.42A10.55,10.55,0,0,1,26,38.82Z"/><path class="cls-3" d="M55.55,31a7.11,7.11,0,1,0-8.83-11.07,7.21,7.21,0,0,0-1.21,1.54,8.62,8.62,0,0,1,1.67.89,5.26,5.26,0,0,1,1.28-1.42,5.21,5.21,0,1,1,5.33,8.87,7.87,7.87,0,0,1,.13,1.38,7.5,7.5,0,0,1-.11,1.27,9.49,9.49,0,0,1,7.3,9.22H63A11.41,11.41,0,0,0,55.55,31Z"/><path class="cls-3" d="M17.08,31.18a7.87,7.87,0,0,1,.13-1.38,5.21,5.21,0,1,1,5.33-8.87,5.26,5.26,0,0,1,1.28,1.42,8.62,8.62,0,0,1,1.67-.89,7.21,7.21,0,0,0-1.21-1.54A7.11,7.11,0,1,0,15.45,31,11.41,11.41,0,0,0,8,41.67h1.9a9.49,9.49,0,0,1,7.3-9.22A7.5,7.5,0,0,1,17.08,31.18Z"/><path class="cls-3" d="M35.5,19.85a5.21,5.21,0,0,1,5.1,4.23,6,6,0,0,1,1.79-.77,7.11,7.11,0,0,0-13.78,0,6,6,0,0,1,1.79.77A5.21,5.21,0,0,1,35.5,19.85Z"/></svg>