<svg id="Layer_1" data-name="Layer 1" xmlns="http://www.w3.org/2000/svg" viewBox="0 0 71 71"><defs><style>.cls-1{fill:#86d1d7;}.cls-2{fill:none;stroke:#282567;stroke-miterlimit:10;}.cls-3{fill:#282567;}</style></defs><circle class="cls-1" cx="35.5" cy="35.5" r="35.5"/><circle class="cls-2" cx="35.5" cy="35.5" r="31"/><path class="cls-3" d="M21.15,57.54a.38.38,0,0,1-.31-.18.37.37,0,0,1,.14-.49L24.37,55a.7.7,0,0,0,.32-.41.68.68,0,0,0-.06-.52L17.71,41.77a.68.68,0,0,0-.93-.26l-3.39,1.91a.37.37,0,0,1-.49-.14A.36.36,0,0,1,13,42.8l3.39-1.91a1.39,1.39,0,0,1,1.9.53l6.91,12.26a1.39,1.39,0,0,1-.53,1.9l-3.38,1.91A.41.41,0,0,1,21.15,57.54Z"/><path class="cls-3" d="M42.72,45.17a1.83,1.83,0,0,1-.33,0l-5.49-.62a.36.36,0,0,1,.08-.71l5.49.63A2.22,2.22,0,0,0,44.11,44a2.2,2.2,0,0,0,.82-1.48l.09-.76a2.18,2.18,0,0,0-.47-1.63,2.21,2.21,0,0,0-1.49-.83h0L29.82,37.61a4.87,4.87,0,0,0-3,.59L18.7,42.8a.37.37,0,0,1-.49-.14.36.36,0,0,1,.14-.48l8.15-4.6A5.38,5.38,0,0,1,28.15,37a5.77,5.77,0,0,1,1.76-.06l13.23,1.65a2.93,2.93,0,0,1,2,1.09,3,3,0,0,1,.63,2.16l-.09.76a2.94,2.94,0,0,1-2.92,2.6Z"/><path class="cls-3" d="M24.43,53.32a.38.38,0,0,1-.31-.18.36.36,0,0,1,.14-.49L25.48,52a5.38,5.38,0,0,1,1.65-.61,5.47,5.47,0,0,1,1.76-.07l10.16,1.27A4.87,4.87,0,0,0,42,52l11.36-6.4a.35.35,0,1,1,.35.61L42.37,52.6a5.65,5.65,0,0,1-1.65.61,5.77,5.77,0,0,1-1.76.06L28.8,52a4.87,4.87,0,0,0-3,.58l-1.22.69A.41.41,0,0,1,24.43,53.32Z"/><path class="cls-3" d="M51.67,47.31a.38.38,0,0,1-.31-.18.36.36,0,0,1,.13-.49l4.81-2.72a2.22,2.22,0,0,0,.84-3l-.37-.66a2.35,2.35,0,0,0-1.36-1.07,2.2,2.2,0,0,0-1.71.18.35.35,0,0,1-.48-.13.36.36,0,0,1,.13-.49,2.89,2.89,0,0,1,2.25-.24,3,3,0,0,1,1.79,1.4l.37.66a2.94,2.94,0,0,1-1.11,4l-4.81,2.72A.34.34,0,0,1,51.67,47.31Z"/><path class="cls-3" d="M56.45,44.61a.38.38,0,0,1-.31-.18.37.37,0,0,1,.14-.49,2.29,2.29,0,0,0,.82-3.09l-.37-.66a2.26,2.26,0,0,0-3-.84l-4.81,2.72a.36.36,0,0,1-.48-.14.35.35,0,0,1,.13-.48l4.81-2.72a2.94,2.94,0,0,1,2.23-.27,2.87,2.87,0,0,1,1.77,1.39l.38.66A3,3,0,0,1,58,42.76a2.88,2.88,0,0,1-1.37,1.8A.41.41,0,0,1,56.45,44.61Z"/><path class="cls-3" d="M38.25,28.39a5.07,5.07,0,0,1-2.9-.9,5.16,5.16,0,0,1,1.95-9.33A5.16,5.16,0,1,1,39.22,28.3,5.31,5.31,0,0,1,38.25,28.39Zm0-9.61a4.78,4.78,0,0,0-.84.08,4.44,4.44,0,0,0-2.85,1.86,4.45,4.45,0,0,0,4.51,6.88,4.45,4.45,0,0,0-.82-8.82Z"/><path class="cls-3" d="M38.46,26.6l-.15-.77a3.25,3.25,0,0,1-1.43-.08l.06-1a2.88,2.88,0,0,0,1.4.1c.46-.09.74-.32.68-.65s-.35-.45-1-.54c-.92-.12-1.58-.41-1.73-1.2a1.51,1.51,0,0,1,1.09-1.69L37.25,20l.79-.15.14.71a2.92,2.92,0,0,1,1.22,0l-.07,1a2.66,2.66,0,0,0-1.21-.06c-.52.1-.65.36-.61.58s.37.39,1.1.51c1,.16,1.5.53,1.63,1.26a1.57,1.57,0,0,1-1.15,1.76l.16.82Z"/><path class="cls-3" d="M48.12,37a4.88,4.88,0,0,1-.85-.07,5.16,5.16,0,1,1,5.93-4.25h0A5.15,5.15,0,0,1,48.12,37Zm0-9.61a4.45,4.45,0,0,0-4.38,3.72,4.46,4.46,0,0,0,3.66,5.12,4.71,4.71,0,0,0,.74.06,4.45,4.45,0,0,0,4.38-3.72h0a4.46,4.46,0,0,0-3.66-5.12A4.71,4.71,0,0,0,48.1,27.37Z"/><path class="cls-3" d="M47.13,35.05l.13-.77a3.38,3.38,0,0,1-1.32-.57l.4-.91a3,3,0,0,0,1.29.58c.46.07.8-.05.86-.38s-.18-.54-.74-.84c-.82-.44-1.34-.94-1.21-1.72a1.52,1.52,0,0,1,1.6-1.22l.13-.77.79.14-.12.71a2.9,2.9,0,0,1,1.13.46l-.38.87a2.75,2.75,0,0,0-1.12-.46c-.53-.09-.74.11-.77.33s.21.49.85.86c.91.5,1.22,1,1.1,1.74a1.58,1.58,0,0,1-1.69,1.26l-.13.82Z"/><path class="cls-3" d="M50.62,23.79a5.37,5.37,0,0,1-1.32-.17,5.16,5.16,0,0,1,2.61-10,5.17,5.17,0,0,1,3.69,6.3h0a5.18,5.18,0,0,1-5,3.86Zm0-9.61a4.43,4.43,0,1,0,1.12.14A4.3,4.3,0,0,0,50.61,14.18Z"/><path class="cls-3" d="M49.34,21.75l.2-.75a3.11,3.11,0,0,1-1.26-.7l.48-.86a2.82,2.82,0,0,0,1.22.69c.46.12.81,0,.89-.29s-.12-.56-.66-.91c-.77-.51-1.25-1.06-1-1.83A1.52,1.52,0,0,1,50.88,16l.19-.75.78.2-.18.7a3,3,0,0,1,1.08.56l-.47.84A2.71,2.71,0,0,0,51.21,17c-.51-.13-.74.05-.8.27s.17.5.78.93c.85.58,1.12,1.12.93,1.83a1.56,1.56,0,0,1-1.79,1.1l-.21.81Z"/></svg>