<svg id="Layer_1" data-name="Layer 1" xmlns="http://www.w3.org/2000/svg" viewBox="0 0 718.03 718.03"><defs><style>.cls-1{fill:#fff;}</style></defs><path class="cls-1" d="M359,718C161.05,718,0,557,0,359S161.05,0,359,0,718,161.05,718,359,557,718,359,718Zm0-683.75C180,34.28,34.28,180,34.28,359S180,683.75,359,683.75,683.75,538.07,683.75,359,538.07,34.28,359,34.28Z"/><polygon class="cls-1" points="529.07 242.55 475.48 188.96 359.01 305.43 242.55 188.96 188.96 242.55 305.43 359.01 188.96 475.48 242.55 529.07 359.01 412.6 475.48 529.07 529.07 475.48 412.6 359.01 529.07 242.55"/></svg>