<svg id="Layer_1" data-name="Layer 1" xmlns="http://www.w3.org/2000/svg" viewBox="0 0 183.35 186.42"><defs><style>.cls-1{fill:#86d1d7;}.cls-2{fill:#2e2b7c;}</style></defs><rect class="cls-1" x="11.32" y="12.85" width="160.72" height="160.72" rx="23.65"/><path class="cls-2" d="M91.68,62.49A14.28,14.28,0,1,0,106,76.77,14.3,14.3,0,0,0,91.68,62.49Z"/><path class="cls-2" d="M91.68,31.14A47.92,47.92,0,0,0,43.75,79.07c0,22.57,34.84,63.4,45.11,74.94a3.76,3.76,0,0,0,5.63,0c10.27-11.54,45.12-52.37,45.12-74.94A47.93,47.93,0,0,0,91.68,31.14Zm0,69.33a23.7,23.7,0,1,1,23.69-23.7A23.72,23.72,0,0,1,91.68,100.47Z"/></svg>