<svg id="Layer_1" data-name="Layer 1" xmlns="http://www.w3.org/2000/svg" viewBox="0 0 71 71"><defs><style>.cls-1{fill:#86d1d7;}.cls-2{fill:none;stroke:#282567;stroke-miterlimit:10;}.cls-3{fill:#282567;}</style></defs><circle class="cls-1" cx="35.5" cy="35.5" r="35.5"/><circle class="cls-2" cx="35.5" cy="35.5" r="31"/><path class="cls-3" d="M45.24,17.39a12.85,12.85,0,0,0-19.48,0,14.2,14.2,0,0,0-3.65,9.25A17.48,17.48,0,0,0,25.25,36a15.27,15.27,0,0,1,.93,1.67A15.56,15.56,0,0,1,27.42,42l2.22-.32a18,18,0,0,0-1.38-4.8,13.07,13.07,0,0,0-1.1-2,15.31,15.31,0,0,1-2.81-8.2c0-5.43,4.58-11.49,11.15-11.49s11.15,6.06,11.15,11.49a15.31,15.31,0,0,1-2.81,8.2,14,14,0,0,0-1.1,2,18,18,0,0,0-1.38,4.8l2.22.32a15.56,15.56,0,0,1,1.24-4.31A15.27,15.27,0,0,1,45.75,36a17.48,17.48,0,0,0,3.14-9.36A14.22,14.22,0,0,0,45.24,17.39Z"/><polygon class="cls-3" points="34.38 41.84 36.62 41.84 36.62 41.84 36.62 34.88 41.59 29.91 40.01 28.33 35.5 32.84 30.99 28.33 29.41 29.91 34.38 34.88 34.38 41.84 34.38 41.84"/><rect class="cls-3" x="29.02" y="43.48" width="12.97" height="2.24"/><polygon class="cls-3" points="30.54 55.92 34.64 58.08 36.56 58.08 40.46 55.92 40.46 54.2 30.54 54.2 30.54 55.92"/><path class="cls-3" d="M42,47.06H29a1.12,1.12,0,0,0,0,2.24H42a1.12,1.12,0,1,0,0-2.24Z"/><path class="cls-3" d="M42,50.62H29a1.12,1.12,0,0,0,0,2.24H42a1.12,1.12,0,0,0,0-2.24Z"/></svg>