<svg id="Layer_1" data-name="Layer 1" xmlns="http://www.w3.org/2000/svg" viewBox="0 0 792 612"><defs><style>.cls-1{fill:#fff;}</style></defs><path class="cls-1" d="M121.11,501.06l-20.38,65.66H80.19l-21.3-65.66H80.13l10.39,35.79c.71,2.11,1.33,4.2,1.88,6.25l12.14-42Z"/><path class="cls-1" d="M155.19,501.06v65.66H135V501.06Z"/><path class="cls-1" d="M233,566.72H210.62L201,541.61h-6.35v25.11H174.52V501.06h34.3q11.35,0,17.63,5.31a17.5,17.5,0,0,1,6.28,14,21.06,21.06,0,0,1-2.31,10q-2.31,4.37-9.34,7.67Zm-38.29-39.16h8.61A10.59,10.59,0,0,0,209.4,526a5.27,5.27,0,0,0,2.3-4.66q0-6.3-7.74-6.3h-9.28Z"/><path class="cls-1" d="M277.93,516.79v49.93H258.84V516.79H245.22V501.06h46.33v15.73Z"/><path class="cls-1" d="M358.4,501.06v43.48q0,12.36-7.33,17.77T332,567.73q-12.42,0-19.94-5.2t-7.53-16.93V501.06H325v42.18q0,4.72,2,6.88c1.33,1.44,3.45,2.17,6.36,2.17a10.43,10.43,0,0,0,6-1.57,6,6,0,0,0,2.78-3.53,40.84,40.84,0,0,0,.46-7.7V501.06Z"/><path class="cls-1" d="M411.87,566.72l-3.71-12.94H390.57l-3.94,12.94H370.26l20.27-65.66h21.31l20.6,65.66ZM394,539.44h10.63l-5.32-19.05Z"/><path class="cls-1" d="M492.4,550.6v16.12h-46V501.06h20.15V550.6Z"/><path class="cls-1" d="M526.25,501.06h40.12v9.23H551.7v56.43H540.82V510.29H526.25Z"/><path class="cls-1" d="M579,501.06h37.62v8.7H589.83v18.76h21v8.76h-21v20.54H617v8.9H579Z"/><path class="cls-1" d="M665.15,544.64l10,1.39q-3.07,21.88-21.48,21.89-12,0-17.83-9.19T630,534.15q0-16.59,6.2-25.45t17.87-8.85q18.08,0,21.2,22.42l-10.11,1.49q-1.64-14.91-11-14.91-12.57,0-12.57,25.93,0,24.13,12.57,24.14c3.36,0,5.87-1.22,7.51-3.68S664.45,549.25,665.15,544.64Z"/><path class="cls-1" d="M692,501.06H702.9v27.22h19.34V501.06h10.87v65.66H722.24V537.47H702.9v29.25H692Z"/><polygon class="cls-1" points="289.9 234.87 191.79 45.19 103.83 45.19 289.3 384.11 429.23 150.22 342.42 148.54 289.58 235.64 342.42 148.54 289.9 234.87"/><polygon class="cls-1" points="405.15 45.13 355.52 126.95 473.03 126.95 304.16 411.27 349.83 494.73 560.34 126.92 653.71 126.92 702.03 44.08 405.15 45.13"/></svg>