<svg xmlns="http://www.w3.org/2000/svg" viewBox="0 0 615.75 500"><defs><style>.cls-1{opacity:0.2;}</style></defs><g id="OBJECT"><g class="cls-1"><path d="M604.62,411.27V405H596.9V384l.91-.61v-7.55l-.85-.38V355.05l-6.7-.81V291.39l-5.1-1s0-.26,0-.75,0-1.09,0-1.91,0-2.06,0-3.38c0-.6,0-1.24,0-1.91,0-1,0-2.18,0-3.38,0-.62,0-1.25,0-1.9,0-1.08,0-2.22,0-3.39,0-.62,0-1.25,0-1.9,0-1.11,0-2.23-.05-3.39,0-.63,0-1.27,0-1.9,0-1.11,0-2.25-.06-3.39,0-.61,0-1.26,0-1.9,0-1.12,0-2.24-.05-3.38,0-.64,0-1.27,0-1.91,0-1.12,0-2.26,0-3.38,0-.64,0-1.27,0-1.91,0-1.13,0-2.26-.07-3.38,0-.63,0-1.27,0-1.9,0-1.14,0-2.28-.06-3.39,0-.65,0-1.28,0-1.9,0-1.16-.05-2.28-.06-3.39,0-.65,0-1.28,0-1.9,0-1.17-.07-2.29-.08-3.39,0-.65,0-1.28,0-1.9,0-1.19-.08-2.32-.1-3.38,0-.67,0-1.3-.08-1.91,0-1.25-.08-2.39-.13-3.38,0-.7-.07-1.34-.1-1.91a16.29,16.29,0,0,0-.32-3.1c0-.1-.12-.18-.18-.28a7.63,7.63,0,0,0-3-1.9,22.56,22.56,0,0,0-2.47-.82l0-2.57,0-1.9,0-3.39,0-1.9-.05-3.38,0-1.91,0-3.38,0-1.91,0-3.38,0-1.91-.05-3.38,0-1.9,0-3.39v-1.9l-.05-3.39,0-1.9,0-3.39,0-1.9-.05-3.38,0-1.91-.05-3.38,0-1.91,0-3.38,0-1.9-.05-3.39,0-1.9,0-3.39v-1.9l-.05-3.39,0-1.9v-1.32l-4.88-2.84v-34l-.46-1-1.2-2.72-.26-.6V60.33l-.15-.13-2-1.9-.55-.5V34.4l-1-1.86-.28-.49V6.64l-1.43-1.83v-12h-1l-2-48.82-.82,26.23-.81,1.63v13.44l-1.42,2.83V13l-2.44,3.65V47.51l-2.23,2.87v18.5l-1.23,2.84V94.1l-6.51,5.69v87.66l-7.71,4.69v74.65l-4.69,2.64v38l-5.08,2.64v94.18H521.7v6.51h-6.1v6H612v-5.55Zm-13.89-54.79v1.91H563.8v-1.91Zm-26.93,38v-1.88h26.93v1.88Zm26.93,3v1.89H563.8v-1.89Zm-26.93-7.88v-1.89h26.93v1.89Zm0-15.31v-1.9h26.93v1.9Zm0-5.29v-1.9h26.93V369Zm0-5.29v-1.9h26.93v1.9Zm23.61-60.07v1.9H563.8v-1.9Zm-23.61-3.39v-1.9h23.61v1.9Zm23.61,8.68v1.9H563.8v-1.9Zm0,5.29v1.9H563.8v-1.9Zm0,15.86v1.9H563.8V330Zm0,5.29v1.9H563.8v-1.9Zm0,5.29v1.9H563.8v-1.9Zm0,5.29v1.9H563.8v-1.9Zm0,5.28v1.91H563.8v-1.91Zm0-58.17v1.9H563.8V293Zm-4.56-3.38H563.8v-1.91h19C582.85,288.55,582.85,289.18,582.85,289.64Zm-.05-5.29h-19v-1.91h19C582.8,283.11,582.8,283.75,582.8,284.35Zm0-5.29h-19v-1.9h18.94C582.74,277.81,582.74,278.44,582.75,279.06Zm0-5.29H563.8v-1.9h18.89C582.69,272.52,582.71,273.15,582.71,273.77Zm-.07-5.29H563.8v-1.9h18.82C582.62,267.21,582.62,267.85,582.64,268.48Zm-.06-5.29H563.8v-1.9h18.76C582.56,261.93,582.58,262.58,582.58,263.19ZM582.27,242H563.8v-1.9h18.43C582.25,240.76,582.25,241.39,582.27,242Zm-.1-5.29H563.8v-1.9h18.34C582.15,235.47,582.17,236.1,582.17,236.75Zm-.12-5.29H563.8v-1.9H582C582,230.18,582,230.81,582.05,231.46Zm-.13-5.28H563.8v-1.91h18.06C581.89,224.88,581.91,225.51,581.92,226.18Zm-.17-5.29h-18V219h17.85C581.68,219.55,581.71,220.19,581.75,220.89Zm-3.21-7.19a6.77,6.77,0,0,1,2.67,1.9H563.8v-1.9Zm-2.24-3.39H563.8v-1.9h12.46Zm-.07-5.29H563.8v-1.9h12.41Zm-.06-5.28H563.8v-1.91h12.33Zm-.07-5.29H563.8v-1.91h12.27Zm-.08-5.29H563.8v-1.91H576Zm0-5.29H563.8V182h12.14Zm-.08-5.29H563.8v-1.9h12.07Zm0-5.29h-12v-1.9h12Zm-.21-15.86H563.8v-1.91h11.8Zm-.07-5.29H563.8v-1.9h11.75Zm-.06-5.29H563.8V145h11.67Zm-.07-5.29H563.8v-1.9h11.62Zm-.09-7.19,0,1.9H563.8v-1.9ZM594,404.21H563.8v-1.89H594ZM570.22,122.83v1.91H559.86v-1.91Zm0-4.6v1.9H559.86v-1.9Zm0-4.61v1.91H559.86v-1.91Zm0-4.62v1.91H559.86V109Zm0-4.6v1.9H559.86v-1.9Zm0-4.61v1.91H559.86V99.79Zm0-3.56v.85H559.86V95.19h10Zm-1.44-3.76h-8.92v-1.9h8.7v1.3ZM568.56,86v1.91h-8.7V86Zm0-4.6v1.9h-8.7v-1.9Zm0-4.62v1.9h-8.7v-1.9Zm0-4.61V74h-8.7v-1.9Zm0-4.6v1.9h-8.7v-1.9Zm0-4.62v1.9h-8.7v-1.9Zm-.13-2.71h-8.57V58.3h6.8Zm-2.25-6.51V55.6h-6.32V53.69Zm0-4.62V51h-6.32V49.07Zm0-4.6v1.9h-6.32v-1.9Zm0-4.61v1.91h-6.32V39.86Zm0-4.6v1.9h-6.32v-1.9Zm-.9-2.72h-5.42v-1.9H565v1.41Z"/></g><g class="cls-1"><path d="M23.05,498.46l5.08-241.3L6.75,239.41v-7.25L31,228.54l3.27-92.39H36.1L38.64,87.6l4.7-8.33v63S84.65,188,100.59,222c0,0,25.36-6.16,38.41,0,3.26,6.52-9.43,6.16-9.43,6.16l-9.41,18.48s20.47,41.48,29.7,88.22,16.31,77.17,0,144l-6.52,19.56ZM52.58,226.73,80,222.92S76.5,215.86,70,200.37s-17.39-30.16-17.39-30.16Zm36.28-6.25h3.4L82.2,204.17Zm-4.76,9.7L45.69,235.6V243l41.85-5.89A43.86,43.86,0,0,0,84.1,230.18Zm7.44,18.64-45.85,5.34v7.44L93.5,256C92.82,253.38,92.17,251,91.54,248.82Zm2.41,9-48.26,5.63v7.43l49.94-5.83Q94.78,261.22,94,257.86ZM96,267l-50.33,5.86v7.44l51.81-6C97,271.64,96.5,269.23,96,267Zm1.82,9.1-52.15,6.11v7.42l53.46-6.24C98.71,280.79,98.28,278.36,97.84,276.05Zm1.63,9.15-53.78,6.29v7.41l55-6.41C100.26,290,99.87,287.53,99.47,285.2Zm1.46,9.16-55.24,6.45v7.42L102,301.66C101.65,299.14,101.3,296.71,100.93,294.36Zm1.35,9.17-56.59,6.61v7.41l57.57-6.71C102.93,308.31,102.6,305.88,102.28,303.53Zm1.22,9.2-57.81,6.74v7.41l58.7-6.85Q104,316.28,103.5,312.73Zm2,16.5-59.76,7v7.41l60.57-7.06C106,334.07,105.74,331.62,105.45,329.23Zm1,9.24-60.76,7.08V353l61.48-7.17C106.93,343.29,106.69,340.86,106.45,338.47Zm.89,9.21-61.65,7.2v7.41L108,355C107.8,352.51,107.58,350.08,107.34,347.68Zm.85,9.22-62.5,7.31v7.41l63.13-7.37C108.63,361.75,108.41,359.29,108.19,356.9Zm.78,9.24-63.28,7.39v7.41l63.87-7.45C109.37,371,109.17,368.55,109,366.14Zm.72,9.24-64,7.48v7.41l64.33-7.5Q109.89,379.1,109.69,375.38Zm.39,9.28-64.39,7.52v7.44l64.61-7.57C110.26,389.62,110.19,387.14,110.08,384.66Zm.24,9.31-64.63,7.54v7.43l64.72-7.56C110.41,398.92,110.39,396.47,110.32,394ZM45.69,415.92v7.44l64.61-7.55c.07-2.45.09-4.93.11-7.45Zm0,9.33v7.43L110,425.16c.11-2.44.17-4.93.22-7.46Zm0,9.32V442l64-7.46v0c.11-2.44.22-4.91.3-7.46Zm0,9.33v7.44l63.44-7.42c.15-2.41.3-4.91.43-7.48Zm0,9.33v7.43l62.76-7.32c.18-2.4.37-4.9.54-7.51Zm0,9.32V470l62-7.23c.22-2.37.43-4.87.65-7.5Zm0,9.33v7.43l61-7.11c.26-2.3.52-4.82.78-7.54Zm0,9.32v7.44l59.87-7c.26-2.09.57-4.61.89-7.54ZM114,247.88l-15.57-1.72c.26.85.54,1.74.8,2.66.46,1.54.92,3.21,1.4,5l16.15,1.79C115.82,252.88,114.89,250.29,114,247.88Zm-4.94-16L93.5,230.18c.26.85.54,1.74.8,2.66.46,1.54.91,3.21,1.39,5l16.15,1.78C110.89,236.9,110,234.31,109.06,231.9Zm8.41,25.68-16.34-1.81.06.24c.15.61.31,1.22.46,1.85.41,1.74.87,3.58,1.3,5.54l17.13,1.89C119.21,262.62,118.32,260.05,117.47,257.58Zm3.27,9.69-17.37-1.93c.13.52.24,1.06.34,1.61.39,1.91.81,3.89,1.24,6l18.26,2C122.39,272.36,121.56,269.77,120.74,267.27Zm3.08,9.65-18.5-2c.07.39.13.78.22,1.17.39,2.05.76,4.18,1.15,6.39l19.41,2.16C125.36,282,124.6,279.44,123.82,276.92Zm2.85,9.66L107,284.4c0,.26.08.55.13.8.37,2.16.72,4.42,1.09,6.74l20.47,2.29C128.08,291.68,127.39,289.12,126.67,286.58Zm2.56,9.6-20.67-2.3c0,.15,0,.33.07.48q.51,3.42,1,7.06l21.39,2.39Q130.25,300,129.23,296.18ZM133,313.33c-.46-2.47-1-5-1.53-7.56L110,303.36c0,.06,0,.11,0,.17.33,2.35.66,4.78,1,7.31v.06Zm.32,2-22.13-2.45c.29,2.32.59,4.73.87,7.19,0,.11,0,.2,0,.31l22.3,2.48C134.17,320.38,133.8,317.86,133.34,315.29Zm2,17-22.18-2.48c.26,2.22.5,4.48.74,6.79,0,.23,0,.49.09.74l22,2.45C135.82,337.23,135.63,334.7,135.39,332.27Zm.8,9.41-22-2.43c.2,2.13.42,4.3.64,6.54,0,.31.06.63.08.94l21.76,2.43C136.56,346.64,136.36,344.14,136.19,341.68Zm.65,9.41-21.71-2.43c.21,2.07.39,4.17.58,6.35.05.39.09.76.11,1.15l21.5,2.39C137.19,356.07,137,353.57,136.84,351.09Zm.61,9.37L116,358.07c.17,2,.34,4.09.52,6.18,0,.43.09.89.11,1.33l21.26,2.36C137.73,365.47,137.6,363,137.45,360.46Zm.52,9.4-21.19-2.37c.15,2,.32,4,.48,6,0,.35.06.71.08,1.06,0,.13,0,.29,0,.42l21,2.34Q138.16,373.64,138,369.86Zm.48,9.37-21-2.33c.11,2,.2,3.91.26,5.87.05.52.07,1.06.07,1.58l21,2.33C138.69,384.25,138.58,381.77,138.45,379.23Zm.44,9.38-21-2.34c.07,1.93.11,3.87.16,5.78,0,.54,0,1.11,0,1.65l21.17,2.37C139.08,393.68,139,391.2,138.89,388.61Zm.63,16.83c-.07-2.32-.16-4.82-.26-7.45L118,395.62c0,1.93.06,3.84.06,5.76,0,.56,0,1.13,0,1.67Zm.26,7L118.08,410c0,2,0,3.87-.08,5.78,0,.55,0,1.09,0,1.63l22,2.46C139.93,418.05,139.86,415.53,139.78,412.44Zm.26,9.37-22.13-2.48c0,2-.09,3.92-.17,5.83,0,.54,0,1.06,0,1.59l22.07,2.45c.21-3.63.32-5.84.32-5.84S140.06,422.81,140,421.81Zm-22.43,6.83c-.07,2-.16,4-.25,5.89v0c0,.5-.06,1-.08,1.48l21.85,2.44c.19-2.74.37-5.24.5-7.38Zm-.44,9.26c-.11,2.06-.22,4.06-.35,6,0,.46-.06.91-.09,1.37l21.68,2.41c.22-2.56.41-5,.57-7.36Zm-.56,9.28q-.24,3.19-.46,6.16c-.05.41-.07.82-.09,1.21l21.54,2.39c.24-2.47.46-4.95.66-7.34Zm-.72,9.24c-.18,2.2-.37,4.31-.55,6.33,0,.35-.06.69-.11,1l21.46,2.39c.26-2.43.5-4.89.74-7.37Zm-.83,9.24c-.24,2.35-.46,4.52-.7,6.54,0,.26,0,.55-.08.81l21.28,2.37q.49-3.53.91-7.35Zm-1,9.22c-.28,2.6-.56,4.86-.8,6.78,0,.2-.05.37-.07.56l20.91,2.33c.42-2.2.83-4.65,1.2-7.3Z"/><path d="M362.49,456.11v-8.37h-8.63V290.9l-3.19-3.21V251.74h-7.39V235.49h-6.4V225.14h-6.4v-8.86H320.14a20.18,20.18,0,0,0-19.21-20.14V176.23h-2v19.91a20.18,20.18,0,0,0-19.21,20.14h-8v11.21L266.2,233v8.12L261,246.32v15.5h-6.15l-3.7,3.71V436.41h-4.92v6.41h-7.88v5.91H230v5.9H218.69v43.83h157.1V456.11ZM289.11,234.5l.53-.85,7.61-12h21.41v18.71H303.39s-14.28-1-14.28,10.83Zm29.55,19.4v5.22H290.59c3.6-5.84,12.8-5.22,12.8-5.22Zm-29.55,10.84a12.21,12.21,0,0,1,.18-2.17h29.37V269H289.11Zm0,7.68h29.55v6.4H289.11Zm0,9.85h29.55v6.4H289.11Zm0,9.85h29.55v6.4H289.11Zm0,9.85h29.55v6.4H289.11Zm0,9.85h29.55v6.4H289.11Zm0,9.85h29.55v6.4H289.11Zm0,9.85h29.55v6.4H289.11Zm0,15.26v-5.41h29.55v6.4H277.29v-1Zm-16.25,60.08V401h4.43v-.5h41.37v6.4Zm45.8,3.45v6.4H263v-6.4ZM277.29,397v-6.41h41.37V397Zm0-9.85v-6.41h41.37v6.41Zm0-9.85v-6.4h41.37v6.4Zm0-9.85v-6.41h41.37v6.41Zm0-9.85v-6.41h41.37v6.41Zm-22.16-88.15,3.7-3.71H265v-15.5l5.16-5.18V237l5.56-5.53V220.22h7.5v24.13h-7.27v7.39h3.65V265h-8.69V269h5v3.45H265.47v68H255.13Zm7.39,223.09H224.6v-3.45h37.92Zm0-6.9H224.6v-6.4h37.92Zm0-9.85H224.6v-6.4h37.92Zm62.78,16.75H297.23v-3.45H325.3Zm0-6.9H297.23v-6.4H325.3Zm0-9.85H297.23v-6.4H325.3Zm0-9.85H297.23v-3.45H262.52V466H224.6v-6.4H325.3Zm0-9.85H234v-3.45h8.38v-3h83Zm0-9.85H250.21v-5.91h4.92v-.49H325.3Zm0-9.85H255.13V430H325.3Zm0-9.85H255.13v-6.4h66.49l3.68,3.7Zm24.62,20.69h-8.61v9.85h-8.86V317.73h6.89V259.12H330V244.35h9.35v11.33h7.39v35.95l3.19,3.21Z"/><path d="M240.2,485.81v12.65H163.74V485.81h5.34V197.38h8.71V124.85h3.66V112.48h4.36V100.25a16.15,16.15,0,0,1,15-16.11V68.9h2.25V84.14a16.15,16.15,0,0,1,15,16.11v12.23h4.36v12.37h3.66v72.53h8.71V485.81Zm-21.15-5.27H184.89v2.95h34.16Zm0-6H184.89v2.95h34.16Zm0-6H184.89v3h34.16Zm0-6H184.89v2.95h34.16Zm0-6H184.89v2.94h34.16Zm0-6H184.89v2.95h34.16Zm0-6H184.89v3h34.16Zm0-6H184.89v2.95h34.16Zm0-6H184.89v2.95h34.16Zm0-6H184.89v3h34.16Zm0-6H184.89v2.95h34.16Zm0-6H184.89v2.95h34.16Zm0-6H184.89v2.95h34.16Zm0-6H184.89v3h34.16Zm0-6H184.89v3h34.16Zm0-6H184.89v2.95h34.16Zm0-6H184.89v2.95h34.16Zm0-6H184.89v2.95h34.16Zm0-6H184.89V376h34.16Zm0-6H184.89v3h34.16Zm0-6H184.89v3h34.16Zm0-6H184.89V358h34.16Zm0-6H184.89v3h34.16Zm0-6H184.89v2.95h34.16Zm0-6H184.89v3h34.16Zm0-6H184.89v2.95h34.16Zm0-6H184.89v3h34.16Zm0-6H184.89v2.95h34.16Zm0-6H184.89v2.95h34.16Zm0-6H184.89v3h34.16Zm0-6H184.89v2.95h34.16Zm0-6H184.89v3h34.16Zm0-6H184.89v2.95h34.16Zm0-6H184.89v3h34.16Zm0-6H184.89v2.95h34.16Zm0-6H184.89v2.95h34.16Zm0-6H184.89v3h34.16Zm0-6H184.89v2.95h34.16Zm0-6H184.89v3h34.16Zm0-6H184.89v3h34.16Zm0-6H184.89v2.95h34.16Zm0-6H184.89v2.95h34.16Zm0-6H184.89v3h34.16Zm0-6H184.89v3h34.16Zm0-6H184.89v3h34.16Zm0-6H184.89v2.95h34.16Zm0-6H184.89v2.95h34.16Zm0-6H184.89v2.95h34.16Zm0-6H184.89v2.95h34.16Zm0-6H184.89v3h34.16Zm0-6H184.89v3h34.16Zm0-6H184.89v3h34.16Zm0-6H184.89v2.95h34.16Zm0-6H184.89v3h34.16Zm0-6H184.89v3h34.16Zm0-6H184.89v3h34.16Zm0-6H184.89v2.95h34.16Zm0-6H184.89V143h34.16Zm0-6H184.89V137h34.16Zm0-6H184.89V131h34.16Zm-39.57,71.69h-5.06V483.49h5.06Zm50,0h-5.06V483.49h5.06Z"/></g><g class="cls-1"><path d="M449.54,245.47h-8.6v-4h5V237h-5V220.35h-8a10.45,10.45,0,0,0,.1-1.77,20.91,20.91,0,0,0-1.32-7.38,21.43,21.43,0,0,0-17.46-13.85v-22.9H408.4v22.9A21.43,21.43,0,0,0,391,211.19a20.7,20.7,0,0,0-1.33,7.38,9.52,9.52,0,0,0,.11,1.77h-8V237h-5v4.48h5v4H368.65V486.09H369v12.37h84.68V486.09H454V245.47Zm-13.08-18.94v1.55H433v-1.55Zm-41,0h6.22v1.55H395.5Zm12.07,0h7.55v1.55h-7.55Zm13.4,0h6.22v1.55H421Zm-34.77,0h3.44v1.55H386.2Zm0,7.75h50.26V237H386.2Zm0,7.23h50.26v4H386.2Zm0,236.13v-7.75h50.26v7.75Zm50.26,4.47v4H386.2v-4ZM386.2,465.42v-7.75h50.26v7.75Zm0-12.22v-7.75h50.26v7.75Zm0-12.22v-7.74h50.26V441Zm0-12.22V421h50.26v7.74Zm0-12.22V408.8h50.26v7.74Zm0-12.22v-7.74h50.26v7.74Zm0-12.22v-7.75h50.26v7.75Zm0-12.22v-7.74h50.26v7.74Zm0-12.22v-7.74h50.26v7.74Zm0-12.22V347.7h50.26v7.74Zm0-12.22v-7.74h50.26v7.74Zm0-12.22v-7.74h50.26V331Zm0-12.22V311h50.26v7.74Zm0-12.22v-7.74h50.26v7.74Zm0-12.22V286.6h50.26v7.74Zm0-12.22v-7.74h50.26v7.74Zm0-12.22v-7.74h50.26v7.74Zm0-12.22v-7.74h50.26v7.74Zm-13.08-7.74h8.61v7.74h-8.61Zm0,12.22h8.61v7.74h-8.61Zm0,12.22h8.61v7.74h-8.61Zm0,12.22h8.61v7.74h-8.61Zm0,12.22h8.61v7.74h-8.61Zm0,12.22h8.61v7.74h-8.61Zm0,12.22h8.61V331h-8.61Zm0,12.22h8.61v7.74h-8.61Zm0,12.22h8.61v7.74h-8.61Zm0,12.22h8.61v7.74h-8.61Zm0,12.22h8.61v7.74h-8.61Zm0,12.21h8.61v7.75h-8.61Zm0,12.23h8.61v7.74h-8.61Zm0,12.22h8.61v7.74h-8.61Zm0,12.22h8.61v7.74h-8.61Zm0,12.22h8.61V441h-8.61Zm0,12.21h8.61v7.75h-8.61Zm0,12.22h8.61v7.75h-8.61Zm0,12.22h8.61v7.75h-8.61Zm8.61,12.22v4h-8.61v-4Zm67.81,4h-8.6v-4h8.6Zm0-8.43h-8.6v-7.75h8.6Zm0-12.22h-8.6v-7.75h8.6Zm0-12.22h-8.6v-7.75h8.6Zm0-12.22h-8.6v-7.74h8.6Zm0-12.22h-8.6V421h8.6Zm0-12.22h-8.6V408.8h8.6Zm0-12.22h-8.6v-7.74h8.6Zm0-12.22h-8.6v-7.75h8.6Zm0-12.22h-8.6v-7.74h8.6Zm0-12.22h-8.6v-7.74h8.6Zm0-12.22h-8.6V347.7h8.6Zm0-12.22h-8.6v-7.74h8.6Zm0-12.22h-8.6v-7.74h8.6Zm0-12.22h-8.6V311h8.6Zm0-12.22h-8.6v-7.74h8.6Zm0-12.22h-8.6V286.6h8.6Zm0-12.22h-8.6v-7.74h8.6Zm0-12.22h-8.6v-7.74h8.6Zm0-12.22h-8.6v-7.74h8.6Z"/></g><g class="cls-1"><path d="M607.54,498.46H520.07V365.14h87.47Zm-76.4-128.35-3.71-1.92-3.7,1.92v4.26h7.41Zm0,5.35h-7.41v6.34h7.41Zm-.78,5.68H524.5v-5h5.86Zm.78,1.41h-7.41v6.34h7.41Zm-.78,5.68H524.5v-5h5.86Zm.78,1.41h-7.41V396h7.41Zm-.78,5.68H524.5v-5h5.86Zm.78,1.41h-7.41v6.34h7.41Zm-.78,5.67H524.5v-5h5.86Zm.78,1.42h-7.41v6.34h7.41Zm-.78,5.68H524.5v-5h5.86Zm.78,1.41h-7.41v6.34h7.41Zm-.78,5.67H524.5v-5h5.86Zm.78,1.41h-7.41v6.35h7.41Zm-.78,5.68H524.5v-5h5.86Zm.78,1.41h-7.41v6.35h7.41Zm-.78,5.68H524.5v-5h5.86Zm.78,1.41h-7.41v6.35h7.41Zm-.78,5.68H524.5v-5h5.86Zm.78,1.41h-7.41v6.35h7.41Zm-.78,5.68H524.5v-5h5.86Zm.78,1.41h-7.41v6.34h7.41Zm-.78,5.68H524.5v-5h5.86Zm.78,1.41h-7.41v6.34h7.41Zm-.78,5.68H524.5v-5h5.86Zm.78,1.41h-7.41v6.34h7.41Zm-.78,5.68H524.5v-5h5.86Zm8.82-96.1-3.71-1.92-3.7,1.92v4.26h7.41Zm0,5.35h-7.41v6.34h7.41Zm-.78,5.68h-5.86v-5h5.86Zm.78,1.41h-7.41v6.34h7.41Zm-.78,5.68h-5.86v-5h5.86Zm.78,1.41h-7.41V396h7.41Zm-.78,5.68h-5.86v-5h5.86Zm.78,1.41h-7.41v6.34h7.41Zm-.78,5.67h-5.86v-5h5.86Zm.78,1.42h-7.41v6.34h7.41Zm-.78,5.68h-5.86v-5h5.86Zm.78,1.41h-7.41v6.34h7.41Zm-.78,5.67h-5.86v-5h5.86Zm.78,1.41h-7.41v6.35h7.41Zm-.78,5.68h-5.86v-5h5.86Zm.78,1.41h-7.41v6.35h7.41Zm-.78,5.68h-5.86v-5h5.86Zm.78,1.41h-7.41v6.35h7.41Zm-.78,5.68h-5.86v-5h5.86Zm.78,1.41h-7.41v6.35h7.41Zm-.78,5.68h-5.86v-5h5.86Zm.78,1.41h-7.41v6.34h7.41ZM538.4,452h-5.86v-5h5.86Zm.78,1.41h-7.41v6.34h7.41Zm-.78,5.68h-5.86v-5h5.86Zm.78,1.41h-7.41v6.34h7.41Zm-.78,5.68h-5.86v-5h5.86Zm8.82-96.1-3.7-1.92-3.71,1.92v4.26h7.41Zm0,5.35h-7.41v6.34h7.41Zm-.77,5.68h-5.86v-5h5.86Zm.77,1.41h-7.41v6.34h7.41Zm-.77,5.68h-5.86v-5h5.86Zm.77,1.41h-7.41V396h7.41Zm-.77,5.68h-5.86v-5h5.86Zm.77,1.41h-7.41v6.34h7.41Zm-.77,5.67h-5.86v-5h5.86Zm.77,1.42h-7.41v6.34h7.41Zm-.77,5.68h-5.86v-5h5.86Zm.77,1.41h-7.41v6.34h7.41Zm-.77,5.67h-5.86v-5h5.86Zm.77,1.41h-7.41v6.35h7.41Zm-.77,5.68h-5.86v-5h5.86Zm.77,1.41h-7.41v6.35h7.41Zm-.77,5.68h-5.86v-5h5.86Zm.77,1.41h-7.41v6.35h7.41Zm-.77,5.68h-5.86v-5h5.86Zm.77,1.41h-7.41v6.35h7.41Zm-.77,5.68h-5.86v-5h5.86Zm.77,1.41h-7.41v6.34h7.41Zm-.77,5.68h-5.86v-5h5.86Zm.77,1.41h-7.41v6.34h7.41Zm-.77,5.68h-5.86v-5h5.86Zm.77,1.41h-7.41v6.34h7.41Zm-.77,5.68h-5.86v-5h5.86Zm8.82-96.1-3.71-1.92-3.71,1.92v4.26h7.42Zm0,5.35h-7.42v6.34h7.42Zm-.78,5.68h-5.86v-5h5.86Zm.78,1.41h-7.42v6.34h7.42Zm-.78,5.68h-5.86v-5h5.86Zm.78,1.41h-7.42V396h7.42Zm-.78,5.68h-5.86v-5h5.86Zm.78,1.41h-7.42v6.34h7.42Zm-.78,5.67h-5.86v-5h5.86Zm.78,1.42h-7.42v6.34h7.42Zm-.78,5.68h-5.86v-5h5.86Zm.78,1.41h-7.42v6.34h7.42Zm-.78,5.67h-5.86v-5h5.86Zm.78,1.41h-7.42v6.35h7.42Zm-.78,5.68h-5.86v-5h5.86Zm.78,1.41h-7.42v6.35h7.42Zm-.78,5.68h-5.86v-5h5.86Zm.78,1.41h-7.42v6.35h7.42Zm-.78,5.68h-5.86v-5h5.86Zm.78,1.41h-7.42v6.35h7.42Zm-.78,5.68h-5.86v-5h5.86Zm.78,1.41h-7.42v6.34h7.42Zm-.78,5.68h-5.86v-5h5.86Zm.78,1.41h-7.42v6.34h7.42Zm-.78,5.68h-5.86v-5h5.86Zm.78,1.41h-7.42v6.34h7.42Zm-.78,5.68h-5.86v-5h5.86Zm8.82-96.1-3.71-1.92-3.71,1.92v4.26h7.42Zm0,5.35h-7.42v6.34h7.42Zm-.78,5.68h-5.86v-5h5.86Zm.78,1.41h-7.42v6.34h7.42Zm-.78,5.68h-5.86v-5h5.86Zm.78,1.41h-7.42V396h7.42Zm-.78,5.68h-5.86v-5h5.86Zm.78,1.41h-7.42v6.34h7.42Zm-.78,5.67h-5.86v-5h5.86Zm.78,1.42h-7.42v6.34h7.42Zm-.78,5.68h-5.86v-5h5.86Zm.78,1.41h-7.42v6.34h7.42Zm-.78,5.67h-5.86v-5h5.86Zm.78,1.41h-7.42v6.35h7.42Zm-.78,5.68h-5.86v-5h5.86Zm.78,1.41h-7.42v6.35h7.42Zm-.78,5.68h-5.86v-5h5.86Zm.78,1.41h-7.42v6.35h7.42Zm-.78,5.68h-5.86v-5h5.86Zm.78,1.41h-7.42v6.35h7.42Zm-.78,5.68h-5.86v-5h5.86Zm.78,1.41h-7.42v6.34h7.42Zm-.78,5.68h-5.86v-5h5.86Zm.78,1.41h-7.42v6.34h7.42Zm-.78,5.68h-5.86v-5h5.86Zm.78,1.41h-7.42v6.34h7.42Zm-.78,5.68h-5.86v-5h5.86Zm8.82-96.1-3.71-1.92-3.7,1.92v4.26h7.41Zm0,5.35h-7.41v6.34h7.41Zm-.77,5.68h-5.87v-5h5.87Zm.77,1.41h-7.41v6.34h7.41Zm-.77,5.68h-5.87v-5h5.87Zm.77,1.41h-7.41V396h7.41Zm-.77,5.68h-5.87v-5h5.87Zm.77,1.41h-7.41v6.34h7.41Zm-.77,5.67h-5.87v-5h5.87Zm.77,1.42h-7.41v6.34h7.41Zm-.77,5.68h-5.87v-5h5.87Zm.77,1.41h-7.41v6.34h7.41Zm-.77,5.67h-5.87v-5h5.87Zm.77,1.41h-7.41v6.35h7.41Zm-.77,5.68h-5.87v-5h5.87Zm.77,1.41h-7.41v6.35h7.41Zm-.77,5.68h-5.87v-5h5.87Zm.77,1.41h-7.41v6.35h7.41Zm-.77,5.68h-5.87v-5h5.87Zm.77,1.41h-7.41v6.35h7.41Zm-.77,5.68h-5.87v-5h5.87Zm.77,1.41h-7.41v6.34h7.41Zm-.77,5.68h-5.87v-5h5.87Zm.77,1.41h-7.41v6.34h7.41Zm-.77,5.68h-5.87v-5h5.87Zm.77,1.41h-7.41v6.34h7.41Zm-.77,5.68h-5.87v-5h5.87Zm8.81-96.1-3.71-1.92-3.7,1.92v4.26h7.41Zm0,5.35H572v6.34h7.41Zm-.77,5.68h-5.87v-5h5.87Zm.77,1.41H572v6.34h7.41Zm-.77,5.68h-5.87v-5h5.87Zm.77,1.41H572V396h7.41Zm-.77,5.68h-5.87v-5h5.87Zm.77,1.41H572v6.34h7.41Zm-.77,5.67h-5.87v-5h5.87Zm.77,1.42H572v6.34h7.41Zm-.77,5.68h-5.87v-5h5.87Zm.77,1.41H572v6.34h7.41Zm-.77,5.67h-5.87v-5h5.87Zm.77,1.41H572v6.35h7.41Zm-.77,5.68h-5.87v-5h5.87Zm.77,1.41H572v6.35h7.41Zm-.77,5.68h-5.87v-5h5.87Zm.77,1.41H572v6.35h7.41Zm-.77,5.68h-5.87v-5h5.87Zm.77,1.41H572v6.35h7.41Zm-.77,5.68h-5.87v-5h5.87Zm.77,1.41H572v6.34h7.41Zm-.77,5.68h-5.87v-5h5.87Zm.77,1.41H572v6.34h7.41Zm-.77,5.68h-5.87v-5h5.87Zm.77,1.41H572v6.34h7.41Zm-.77,5.68h-5.87v-5h5.87Zm8.81-96.1-3.7-1.92L580,370.11v4.26h7.41Zm0,5.35H580v6.34h7.41Zm-.77,5.68H580.8v-5h5.86Zm.77,1.41H580v6.34h7.41Zm-.77,5.68H580.8v-5h5.86Zm.77,1.41H580V396h7.41Zm-.77,5.68H580.8v-5h5.86Zm.77,1.41H580v6.34h7.41Zm-.77,5.67H580.8v-5h5.86Zm.77,1.42H580v6.34h7.41Zm-.77,5.68H580.8v-5h5.86Zm.77,1.41H580v6.34h7.41Zm-.77,5.67H580.8v-5h5.86Zm.77,1.41H580v6.35h7.41Zm-.77,5.68H580.8v-5h5.86Zm.77,1.41H580v6.35h7.41Zm-.77,5.68H580.8v-5h5.86Zm.77,1.41H580v6.35h7.41Zm-.77,5.68H580.8v-5h5.86Zm.77,1.41H580v6.35h7.41Zm-.77,5.68H580.8v-5h5.86Zm.77,1.41H580v6.34h7.41Zm-.77,5.68H580.8v-5h5.86Zm.77,1.41H580v6.34h7.41Zm-.77,5.68H580.8v-5h5.86Zm.77,1.41H580v6.34h7.41Zm-.77,5.68H580.8v-5h5.86Zm8.82-96.1-3.71-1.92-3.71,1.92v4.26h7.42Zm0,5.35h-7.42v6.34h7.42Zm-.78,5.68h-5.86v-5h5.86Zm.78,1.41h-7.42v6.34h7.42Zm-.78,5.68h-5.86v-5h5.86Zm.78,1.41h-7.42V396h7.42Zm-.78,5.68h-5.86v-5h5.86Zm.78,1.41h-7.42v6.34h7.42Zm-.78,5.67h-5.86v-5h5.86Zm.78,1.42h-7.42v6.34h7.42Zm-.78,5.68h-5.86v-5h5.86Zm.78,1.41h-7.42v6.34h7.42Zm-.78,5.67h-5.86v-5h5.86Zm.78,1.41h-7.42v6.35h7.42Zm-.78,5.68h-5.86v-5h5.86Zm.78,1.41h-7.42v6.35h7.42Zm-.78,5.68h-5.86v-5h5.86Zm.78,1.41h-7.42v6.35h7.42Zm-.78,5.68h-5.86v-5h5.86Zm.78,1.41h-7.42v6.35h7.42Zm-.78,5.68h-5.86v-5h5.86Zm.78,1.41h-7.42v6.34h7.42ZM594.7,452h-5.86v-5h5.86Zm.78,1.41h-7.42v6.34h7.42Zm-.78,5.68h-5.86v-5h5.86Zm.78,1.41h-7.42v6.34h7.42Zm-.78,5.68h-5.86v-5h5.86Zm8.82-96.1-3.71-1.92-3.71,1.92v4.26h7.42Zm0,5.35H596.1v6.34h7.42Zm-.78,5.68h-5.86v-5h5.86Zm.78,1.41H596.1v6.34h7.42Zm-.78,5.68h-5.86v-5h5.86Zm.78,1.41H596.1V396h7.42Zm-.78,5.68h-5.86v-5h5.86Zm.78,1.41H596.1v6.34h7.42Zm-.78,5.67h-5.86v-5h5.86Zm.78,1.42H596.1v6.34h7.42Zm-.78,5.68h-5.86v-5h5.86Zm.78,1.41H596.1v6.34h7.42Zm-.78,5.67h-5.86v-5h5.86Zm.78,1.41H596.1v6.35h7.42Zm-.78,5.68h-5.86v-5h5.86Zm.78,1.41H596.1v6.35h7.42Zm-.78,5.68h-5.86v-5h5.86Zm.78,1.41H596.1v6.35h7.42Zm-.78,5.68h-5.86v-5h5.86Zm.78,1.41H596.1v6.35h7.42Zm-.78,5.68h-5.86v-5h5.86Zm.78,1.41H596.1v6.34h7.42Zm-.78,5.68h-5.86v-5h5.86Zm.78,1.41H596.1v6.34h7.42Zm-.78,5.68h-5.86v-5h5.86Zm.78,1.41H596.1v6.34h7.42Zm-.78,5.68h-5.86v-5h5.86Z"/><path d="M492.92,498.46H432.38V406.18h60.54ZM440,409.62l-2.57-1.33-2.56,1.33v2.95H440Zm0,3.71h-5.13v4.39H440Zm-.54,3.92h-4.05v-3.47h4.05Zm.54,1h-5.13v4.39H440Zm-.54,3.93h-4.05v-3.47h4.05Zm.54,1h-5.13v4.39H440Zm-.54,3.93h-4.05V423.6h4.05Zm.54,1h-5.13v4.39H440ZM439.5,432h-4.05v-3.47h4.05Zm.54,1h-5.13v4.39H440Zm-.54,3.93h-4.05v-3.47h4.05Zm.54,1h-5.13v4.39H440Zm-.54,3.93h-4.05v-3.47h4.05Zm.54,1h-5.13v4.39H440Zm-.54,3.93h-4.05v-3.47h4.05Zm.54,1h-5.13v4.39H440Zm-.54,3.93h-4.05v-3.47h4.05Zm.54,1h-5.13V457H440Zm-.54,3.93h-4.05V453h4.05Zm.54,1h-5.13v4.39H440Zm-.54,3.93h-4.05v-3.48h4.05Zm.54,1h-5.13v4.39H440Zm-.54,3.93h-4.05v-3.47h4.05Zm.54,1h-5.13v4.39H440Zm-.54,3.93h-4.05v-3.47h4.05Zm.54,1h-5.13v4.39H440Zm-.54,3.93h-4.05v-3.47h4.05Zm6.11-66.52L443,408.29l-2.56,1.33v2.95h5.13Zm0,3.71h-5.13v4.39h5.13Zm-.54,3.92H441v-3.47h4.06Zm.54,1h-5.13v4.39h5.13Zm-.54,3.93H441v-3.47h4.06Zm.54,1h-5.13v4.39h5.13Zm-.54,3.93H441V423.6h4.06Zm.54,1h-5.13v4.39h5.13Zm-.54,3.93H441v-3.47h4.06Zm.54,1h-5.13v4.39h5.13Zm-.54,3.93H441v-3.47h4.06Zm.54,1h-5.13v4.39h5.13Zm-.54,3.93H441v-3.47h4.06Zm.54,1h-5.13v4.39h5.13Zm-.54,3.93H441v-3.47h4.06Zm.54,1h-5.13v4.39h5.13Zm-.54,3.93H441v-3.47h4.06Zm.54,1h-5.13V457h5.13Zm-.54,3.93H441V453h4.06Zm.54,1h-5.13v4.39h5.13Zm-.54,3.93H441v-3.48h4.06Zm.54,1h-5.13v4.39h5.13Zm-.54,3.93H441v-3.47h4.06Zm.54,1h-5.13v4.39h5.13Zm-.54,3.93H441v-3.47h4.06Zm.54,1h-5.13v4.39h5.13Zm-.54,3.93H441v-3.47h4.06Zm6.1-66.52-2.56-1.33L446,409.62v2.95h5.13Zm0,3.71H446v4.39h5.13Zm-.54,3.92h-4.05v-3.47h4.05Zm.54,1H446v4.39h5.13Zm-.54,3.93h-4.05v-3.47h4.05Zm.54,1H446v4.39h5.13Zm-.54,3.93h-4.05V423.6h4.05Zm.54,1H446v4.39h5.13Zm-.54,3.93h-4.05v-3.47h4.05Zm.54,1H446v4.39h5.13Zm-.54,3.93h-4.05v-3.47h4.05Zm.54,1H446v4.39h5.13Zm-.54,3.93h-4.05v-3.47h4.05Zm.54,1H446v4.39h5.13Zm-.54,3.93h-4.05v-3.47h4.05Zm.54,1H446v4.39h5.13Zm-.54,3.93h-4.05v-3.47h4.05Zm.54,1H446V457h5.13Zm-.54,3.93h-4.05V453h4.05Zm.54,1H446v4.39h5.13Zm-.54,3.93h-4.05v-3.48h4.05Zm.54,1H446v4.39h5.13Zm-.54,3.93h-4.05v-3.47h4.05Zm.54,1H446v4.39h5.13Zm-.54,3.93h-4.05v-3.47h4.05Zm.54,1H446v4.39h5.13Zm-.54,3.93h-4.05v-3.47h4.05Zm6.11-66.52-2.57-1.33-2.56,1.33v2.95h5.13Zm0,3.71h-5.13v4.39h5.13Zm-.54,3.92h-4.05v-3.47h4.05Zm.54,1h-5.13v4.39h5.13Zm-.54,3.93h-4.05v-3.47h4.05Zm.54,1h-5.13v4.39h5.13Zm-.54,3.93h-4.05V423.6h4.05Zm.54,1h-5.13v4.39h5.13ZM456.2,432h-4.05v-3.47h4.05Zm.54,1h-5.13v4.39h5.13Zm-.54,3.93h-4.05v-3.47h4.05Zm.54,1h-5.13v4.39h5.13Zm-.54,3.93h-4.05v-3.47h4.05Zm.54,1h-5.13v4.39h5.13Zm-.54,3.93h-4.05v-3.47h4.05Zm.54,1h-5.13v4.39h5.13Zm-.54,3.93h-4.05v-3.47h4.05Zm.54,1h-5.13V457h5.13Zm-.54,3.93h-4.05V453h4.05Zm.54,1h-5.13v4.39h5.13Zm-.54,3.93h-4.05v-3.48h4.05Zm.54,1h-5.13v4.39h5.13Zm-.54,3.93h-4.05v-3.47h4.05Zm.54,1h-5.13v4.39h5.13Zm-.54,3.93h-4.05v-3.47h4.05Zm.54,1h-5.13v4.39h5.13Zm-.54,3.93h-4.05v-3.47h4.05Zm6.1-66.52-2.56-1.33-2.56,1.33v2.95h5.12Zm0,3.71h-5.12v4.39h5.12Zm-.53,3.92h-4.06v-3.47h4.06Zm.53,1h-5.12v4.39h5.12Zm-.53,3.93h-4.06v-3.47h4.06Zm.53,1h-5.12v4.39h5.12Zm-.53,3.93h-4.06V423.6h4.06Zm.53,1h-5.12v4.39h5.12Zm-.53,3.93h-4.06v-3.47h4.06Zm.53,1h-5.12v4.39h5.12Zm-.53,3.93h-4.06v-3.47h4.06Zm.53,1h-5.12v4.39h5.12Zm-.53,3.93h-4.06v-3.47h4.06Zm.53,1h-5.12v4.39h5.12Zm-.53,3.93h-4.06v-3.47h4.06Zm.53,1h-5.12v4.39h5.12Zm-.53,3.93h-4.06v-3.47h4.06Zm.53,1h-5.12V457h5.12Zm-.53,3.93h-4.06V453h4.06Zm.53,1h-5.12v4.39h5.12Zm-.53,3.93h-4.06v-3.48h4.06Zm.53,1h-5.12v4.39h5.12Zm-.53,3.93h-4.06v-3.47h4.06Zm.53,1h-5.12v4.39h5.12Zm-.53,3.93h-4.06v-3.47h4.06Zm.53,1h-5.12v4.39h5.12Zm-.53,3.93h-4.06v-3.47h4.06Zm6.1-66.52-2.56-1.33-2.57,1.33v2.95h5.13Zm0,3.71h-5.13v4.39h5.13Zm-.53,3.92h-4.06v-3.47h4.06Zm.53,1h-5.13v4.39h5.13Zm-.53,3.93h-4.06v-3.47h4.06Zm.53,1h-5.13v4.39h5.13Zm-.53,3.93h-4.06V423.6h4.06Zm.53,1h-5.13v4.39h5.13Zm-.53,3.93h-4.06v-3.47h4.06Zm.53,1h-5.13v4.39h5.13Zm-.53,3.93h-4.06v-3.47h4.06Zm.53,1h-5.13v4.39h5.13Zm-.53,3.93h-4.06v-3.47h4.06Zm.53,1h-5.13v4.39h5.13Zm-.53,3.93h-4.06v-3.47h4.06Zm.53,1h-5.13v4.39h5.13Zm-.53,3.93h-4.06v-3.47h4.06Zm.53,1h-5.13V457h5.13Zm-.53,3.93h-4.06V453h4.06Zm.53,1h-5.13v4.39h5.13Zm-.53,3.93h-4.06v-3.48h4.06Zm.53,1h-5.13v4.39h5.13Zm-.53,3.93h-4.06v-3.47h4.06Zm.53,1h-5.13v4.39h5.13Zm-.53,3.93h-4.06v-3.47h4.06Zm.53,1h-5.13v4.39h5.13Zm-.53,3.93h-4.06v-3.47h4.06Zm6.1-66.52-2.57-1.33-2.56,1.33v2.95h5.13Zm0,3.71h-5.13v4.39h5.13Zm-.54,3.92h-4v-3.47h4Zm.54,1h-5.13v4.39h5.13Zm-.54,3.93h-4v-3.47h4Zm.54,1h-5.13v4.39h5.13Zm-.54,3.93h-4V423.6h4Zm.54,1h-5.13v4.39h5.13ZM472.9,432h-4v-3.47h4Zm.54,1h-5.13v4.39h5.13Zm-.54,3.93h-4v-3.47h4Zm.54,1h-5.13v4.39h5.13Zm-.54,3.93h-4v-3.47h4Zm.54,1h-5.13v4.39h5.13Zm-.54,3.93h-4v-3.47h4Zm.54,1h-5.13v4.39h5.13Zm-.54,3.93h-4v-3.47h4Zm.54,1h-5.13V457h5.13Zm-.54,3.93h-4V453h4Zm.54,1h-5.13v4.39h5.13Zm-.54,3.93h-4v-3.48h4Zm.54,1h-5.13v4.39h5.13Zm-.54,3.93h-4v-3.47h4Zm.54,1h-5.13v4.39h5.13Zm-.54,3.93h-4v-3.47h4Zm.54,1h-5.13v4.39h5.13Zm-.54,3.93h-4v-3.47h4ZM479,409.62l-2.57-1.33-2.57,1.33v2.95H479Zm0,3.71h-5.14v4.39H479Zm-.54,3.92h-4.06v-3.47h4.06Zm.54,1h-5.14v4.39H479Zm-.54,3.93h-4.06v-3.47h4.06Zm.54,1h-5.14v4.39H479Zm-.54,3.93h-4.06V423.6h4.06Zm.54,1h-5.14v4.39H479Zm-.54,3.93h-4.06v-3.47h4.06Zm.54,1h-5.14v4.39H479Zm-.54,3.93h-4.06v-3.47h4.06Zm.54,1h-5.14v4.39H479Zm-.54,3.93h-4.06v-3.47h4.06Zm.54,1h-5.14v4.39H479Zm-.54,3.93h-4.06v-3.47h4.06Zm.54,1h-5.14v4.39H479Zm-.54,3.93h-4.06v-3.47h4.06Zm.54,1h-5.14V457H479Zm-.54,3.93h-4.06V453h4.06Zm.54,1h-5.14v4.39H479Zm-.54,3.93h-4.06v-3.48h4.06Zm.54,1h-5.14v4.39H479Zm-.54,3.93h-4.06v-3.47h4.06Zm.54,1h-5.14v4.39H479Zm-.54,3.93h-4.06v-3.47h4.06Zm.54,1h-5.14v4.39H479Zm-.54,3.93h-4.06v-3.47h4.06Zm6.1-66.52L482,408.29l-2.57,1.33v2.95h5.13Zm0,3.71h-5.13v4.39h5.13Zm-.53,3.92H480v-3.47H484Zm.53,1h-5.13v4.39h5.13Zm-.53,3.93H480v-3.47H484Zm.53,1h-5.13v4.39h5.13Zm-.53,3.93H480V423.6H484Zm.53,1h-5.13v4.39h5.13ZM484,432H480v-3.47H484Zm.53,1h-5.13v4.39h5.13Zm-.53,3.93H480v-3.47H484Zm.53,1h-5.13v4.39h5.13Zm-.53,3.93H480v-3.47H484Zm.53,1h-5.13v4.39h5.13ZM484,446.7H480v-3.47H484Zm.53,1h-5.13v4.39h5.13ZM484,451.6H480v-3.47H484Zm.53,1h-5.13V457h5.13Zm-.53,3.93H480V453H484Zm.53,1h-5.13v4.39h5.13Zm-.53,3.93H480v-3.48H484Zm.53,1h-5.13v4.39h5.13Zm-.53,3.93H480v-3.47H484Zm.53,1h-5.13v4.39h5.13Zm-.53,3.93H480v-3.47H484Zm.53,1h-5.13v4.39h5.13Zm-.53,3.93H480v-3.47H484Zm6.1-66.52-2.57-1.33L485,409.62v2.95h5.13Zm0,3.71H485v4.39h5.13Zm-.54,3.92h-4.06v-3.47h4.06Zm.54,1H485v4.39h5.13Zm-.54,3.93h-4.06v-3.47h4.06Zm.54,1H485v4.39h5.13Zm-.54,3.93h-4.06V423.6h4.06Zm.54,1H485v4.39h5.13ZM489.6,432h-4.06v-3.47h4.06Zm.54,1H485v4.39h5.13Zm-.54,3.93h-4.06v-3.47h4.06Zm.54,1H485v4.39h5.13Zm-.54,3.93h-4.06v-3.47h4.06Zm.54,1H485v4.39h5.13Zm-.54,3.93h-4.06v-3.47h4.06Zm.54,1H485v4.39h5.13Zm-.54,3.93h-4.06v-3.47h4.06Zm.54,1H485V457h5.13Zm-.54,3.93h-4.06V453h4.06Zm.54,1H485v4.39h5.13Zm-.54,3.93h-4.06v-3.48h4.06Zm.54,1H485v4.39h5.13Zm-.54,3.93h-4.06v-3.47h4.06Zm.54,1H485v4.39h5.13Zm-.54,3.93h-4.06v-3.47h4.06Zm.54,1H485v4.39h5.13Zm-.54,3.93h-4.06v-3.47h4.06Z"/><path d="M637.07,470V336l4.14-4.14h-4.48l2.65-3.92h-7.29s.26-4.88-4.63-9.44l4.31-2.22h-2.32l1.91-2.83h-3.9l2.32-2.15s-7-2.49-7.46-5.31a16,16,0,0,1,0-5.32l2.13-1.81h-2.72l-.58-9.95-.58,9.95h-2.73l2.13,1.81a16,16,0,0,1,0,5.32c-.49,2.82-7.46,5.31-7.46,5.31l2.33,2.15h-3.9l1.91,2.83h-2.33l4.32,2.22c-4.89,4.56-4.64,9.44-4.64,9.44h-7.3l2.65,3.92h-4.48l4.16,4.14V470h-5l4.3,4.29v24.22h33.18V474.24L642,470Zm-15.92-162.6,2.56,5.39h-5.13Zm7.62,163.25H613.51V344.24l7.64-5.63,7.62,5.63Zm-4.33-142.71h-6.59v-5l3.29-2.23,3.3,2.23Zm2.84,138.48H615V346.79l6.15-4.54,6.13,4.54Z"/><path d="M520.07,474V358.83l3.55-3.56h-3.84l2.27-3.36h-6.26s.23-4.2-4-8.11l3.71-1.92h-2l1.64-2.42h-3.35l2-1.85s-6-2.14-6.41-4.57a13.66,13.66,0,0,1,0-4.56l1.83-1.55h-2.35l-.49-8.56-.49,8.56h-2.35l1.83,1.55a13.66,13.66,0,0,1,0,4.56c-.43,2.43-6.41,4.57-6.41,4.57l2,1.85h-3.35l1.64,2.42h-2L501,343.8c-4.21,3.91-4,8.11-4,8.11h-6.28l2.28,3.36h-3.85l3.57,3.56V474h-4.27l3.69,3.7v20.8h28.5v-20.8l3.71-3.7Zm-13.68-139.7,2.21,4.63h-4.42Zm6.55,140.27H499.82V366l6.57-4.84,6.55,4.84Zm-3.72-122.62h-5.67v-4.26l2.83-1.93,2.84,1.93Zm2.44,119H501.1V368.14l5.29-3.89,5.27,3.89Z"/><path d="M432.79,481.61V402.42l2.45-2.45h-2.65l1.56-2.32h-4.3a7.71,7.71,0,0,0-2.74-5.57l2.55-1.32h-1.37l1.13-1.67h-2.31l1.38-1.27s-4.12-1.47-4.42-3.14a9.6,9.6,0,0,1,0-3.14l1.26-1.07h-1.61l-.34-5.88-.34,5.88h-1.61l1.26,1.07a9.6,9.6,0,0,1,0,3.14c-.3,1.67-4.41,3.14-4.41,3.14l1.37,1.27h-2.3l1.13,1.67H417.1l2.55,1.32a7.71,7.71,0,0,0-2.74,5.57H412.6l1.56,2.32h-2.64l2.45,2.45v79.19H411l2.55,2.54v14.31h19.6V484.15l2.55-2.54Zm-9.41-96.1,1.52,3.19h-3ZM427.89,482h-9V407.32l4.51-3.33,4.51,3.33Zm-2.56-84.35h-3.9v-2.92l1.95-1.33,1.95,1.33ZM427,479.5h-7.26V408.82l3.63-2.68,3.63,2.68Z"/></g></g></svg>